<svg width="54" height="63" viewBox="0 0 54 63" fill="none" xmlns="http://www.w3.org/2000/svg">
<path d="M32.5925 22.76L35.24 25.4062L32.5925 22.76ZM34.295 20.4287L27.1363 27.5875C26.7664 27.9569 26.5141 28.4275 26.4113 28.94L25.75 32.25L29.06 31.5875C29.5725 31.485 30.0425 31.2338 30.4125 30.8638L37.5713 23.705C37.7864 23.4899 37.957 23.2345 38.0734 22.9534C38.1899 22.6724 38.2498 22.3711 38.2498 22.0669C38.2498 21.7626 38.1899 21.4614 38.0734 21.1803C37.957 20.8993 37.7864 20.6439 37.5713 20.4287C37.3561 20.2136 37.1007 20.043 36.8197 19.9266C36.5386 19.8101 36.2374 19.7502 35.9331 19.7502C35.6289 19.7502 35.3276 19.8101 35.0466 19.9266C34.7655 20.043 34.5101 20.2136 34.295 20.4287V20.4287Z" stroke="black" stroke-opacity="0.5" stroke-width="2" stroke-linecap="round" stroke-linejoin="round"/>
<path d="M35.75 34.75V38.5C35.75 39.163 35.4866 39.7989 35.0178 40.2678C34.5489 40.7366 33.913 41 33.25 41H19.5C18.837 41 18.2011 40.7366 17.7322 40.2678C17.2634 39.7989 17 39.163 17 38.5V24.75C17 24.087 17.2634 23.4511 17.7322 22.9822C18.2011 22.5134 18.837 22.25 19.5 22.25H23.25" stroke="black" stroke-opacity="0.5" stroke-width="2" stroke-linecap="round" stroke-linejoin="round"/>
</svg>
